<mxfile host="app.diagrams.net" modified="2024-04-02T12:27:55.658Z" agent="Mozilla/5.0 (X11; Linux x86_64) AppleWebKit/537.36 (KHTML, like Gecko) Chrome/123.0.0.0 Safari/537.36" version="24.0.7" etag="R3tq3HzojrUy373GNPys" type="github">
  <diagram name="PÃ¡gina-1" id="1TtFpi8Hi0oZ-xvCRigc">
    <mxGraphModel>
      <root>
        <mxCell id="0" />
        <mxCell id="1" parent="0" />
      </root>
    </mxGraphModel>
  </diagram>
</mxfile>
